#
#
#

mtllib House_Water.mtl


#
# PoolGuestHouse-COM-Group_1-113527-Water_Pool_Light 메시
#
g PoolGuestHouse-COM-Group_1-113527-Water_Pool_Light 메시


#
# PoolGuestHouse-COM-Group_1-113527-Water_Pool_Light 메시_Water_Pool_Light
#
usemtl PoolGuestHouse-COM-Group_1-113527-Water_Pool_Light 메시_Water_Pool_Light

v 5.009714 2.044700 -14.754765
v 4.876800 2.044700 -19.983725
v 4.876800 2.044700 -14.763476
v 5.009714 2.044700 -19.992435
v 5.439938 2.044700 -14.669188
v 5.439938 2.044700 -20.078012
v 5.855311 2.044700 -20.219013
v 5.855311 2.044700 -14.528188
v 6.248727 2.044700 -14.334176
v 6.248727 2.044700 -20.413023
v 6.613453 2.044700 -14.090474
v 6.613453 2.044700 -20.656727
v 6.943250 2.044700 -13.801250
v 6.943250 2.044700 -20.945950
v 7.232474 2.044700 -13.471454
v 7.232474 2.044700 -21.275747
v 7.476176 2.044700 -13.106727
v 7.476176 2.044700 -21.640472
v 7.670187 2.044700 -12.713311
v 7.670187 2.044700 -22.033888
v 7.811188 2.044700 -12.297937
v 7.811188 2.044700 -22.449263
v 7.896765 2.044700 -22.879486
v 7.896765 2.044700 -11.867714
v 7.905477 2.044700 -11.734800
v 7.905477 2.044700 -23.012400
v 14.649724 2.044700 -11.734800
v 14.649724 2.044700 -23.012400
v 14.658435 2.044700 -11.867714
v 14.658435 2.044700 -22.879486
v 14.744012 2.044700 -12.297937
v 14.744012 2.044700 -22.449263
v 14.885013 2.044700 -12.713311
v 14.885013 2.044700 -22.033888
v 15.079023 2.044700 -21.640472
v 15.079023 2.044700 -13.106727
v 15.322726 2.044700 -13.471454
v 15.322726 2.044700 -21.275747
v 15.611950 2.044700 -20.945950
v 15.611950 2.044700 -13.801250
v 15.941747 2.044700 -14.090474
v 15.941747 2.044700 -20.656727
v 16.306473 2.044700 -14.334176
v 16.306473 2.044700 -20.413023
v 16.699888 2.044700 -20.219013
v 16.699888 2.044700 -14.528188
v 17.115263 2.044700 -14.669188
v 17.115263 2.044700 -20.078012
v 17.545486 2.044700 -14.754765
v 17.545486 2.044700 -19.992435
v 17.678400 2.044700 -14.763476
v 17.678400 2.044700 -19.983725
vn 0.000000 1.000000 0.000000
vt 1.492009 3.926003
vt 1.437500 6.070425
vt 1.437500 3.929575
vt 1.492009 6.073997
vt 1.668446 3.890907
vt 1.668446 6.109093
vt 1.838792 6.166918
vt 1.838792 3.833082
vt 2.000134 3.753517
vt 2.000134 6.246483
vt 2.149710 3.653574
vt 2.149710 6.346426
vt 2.284961 3.534961
vt 2.284961 6.465038
vt 2.403574 3.399710
vt 2.403574 6.600290
vt 2.503517 3.250134
vt 2.503517 6.749866
vt 2.583082 3.088792
vt 2.583082 6.911208
vt 2.640907 2.918446
vt 2.640907 7.081554
vt 2.676003 7.257991
vt 2.676003 2.742008
vt 2.679575 2.687500
vt 2.679575 7.312500
vt 5.445425 2.687500
vt 5.445425 7.312500
vt 5.448997 2.742008
vt 5.448997 7.257991
vt 5.484093 2.918446
vt 5.484093 7.081554
vt 5.541918 3.088792
vt 5.541918 6.911208
vt 5.621483 6.749866
vt 5.621483 3.250134
vt 5.721426 3.399710
vt 5.721426 6.600290
vt 5.840038 6.465038
vt 5.840038 3.534961
vt 5.975290 3.653574
vt 5.975290 6.346426
vt 6.124866 3.753517
vt 6.124866 6.246483
vt 6.286208 6.166918
vt 6.286208 3.833082
vt 6.456554 3.890907
vt 6.456554 6.109093
vt 6.632991 3.926003
vt 6.632991 6.073997
vt 6.687500 3.929575
vt 6.687500 6.070425
f 1/1/1 2/2/1 3/3/1
f 2/2/1 1/1/1 4/4/1
f 4/4/1 1/1/1 5/5/1
f 4/4/1 5/5/1 6/6/1
f 6/6/1 5/5/1 7/7/1
f 7/7/1 5/5/1 8/8/1
f 7/7/1 8/8/1 9/9/1
f 7/7/1 9/9/1 10/10/1
f 10/10/1 9/9/1 11/11/1
f 10/10/1 11/11/1 12/12/1
f 12/12/1 11/11/1 13/13/1
f 12/12/1 13/13/1 14/14/1
f 14/14/1 13/13/1 15/15/1
f 14/14/1 15/15/1 16/16/1
f 16/16/1 15/15/1 17/17/1
f 16/16/1 17/17/1 18/18/1
f 18/18/1 17/17/1 19/19/1
f 18/18/1 19/19/1 20/20/1
f 20/20/1 19/19/1 21/21/1
f 20/20/1 21/21/1 22/22/1
f 22/22/1 21/21/1 23/23/1
f 23/23/1 21/21/1 24/24/1
f 23/23/1 24/24/1 25/25/1
f 23/23/1 25/25/1 26/26/1
f 26/26/1 25/25/1 27/27/1
f 26/26/1 27/27/1 28/28/1
f 28/28/1 27/27/1 29/29/1
f 28/28/1 29/29/1 30/30/1
f 30/30/1 29/29/1 31/31/1
f 30/30/1 31/31/1 32/32/1
f 32/32/1 31/31/1 33/33/1
f 32/32/1 33/33/1 34/34/1
f 34/34/1 33/33/1 35/35/1
f 35/35/1 33/33/1 36/36/1
f 35/35/1 36/36/1 37/37/1
f 35/35/1 37/37/1 38/38/1
f 38/38/1 37/37/1 39/39/1
f 39/39/1 37/37/1 40/40/1
f 39/39/1 40/40/1 41/41/1
f 39/39/1 41/41/1 42/42/1
f 42/42/1 41/41/1 43/43/1
f 42/42/1 43/43/1 44/44/1
f 44/44/1 43/43/1 45/45/1
f 45/45/1 43/43/1 46/46/1
f 45/45/1 46/46/1 47/47/1
f 45/45/1 47/47/1 48/48/1
f 48/48/1 47/47/1 49/49/1
f 48/48/1 49/49/1 50/50/1
f 50/50/1 49/49/1 51/51/1
f 50/50/1 51/51/1 52/52/1
