#
#
#

mtllib Warehouse - 복사본 (4) - 복사본.mtl


#
# Roof 메시
#
g Roof 메시


#
# Roof 메시_metal_sheet
#
usemtl Roof 메시_metal_sheet

v 1903.572144 727.649963 3121.009277
v 1903.572144 723.569031 3121.009277
v 1903.572144 723.569031 3084.334961
v 0.288022 907.398804 512.287231
v -142.667984 893.739014 185.658600
v -142.667969 893.739014 838.893616
v 1903.572021 727.649963 512.287170
v 1775.538086 739.885315 185.658524
v 1775.538086 739.885315 838.893555
v 0.288022 903.317749 512.287231
v 136.998016 890.258606 185.658600
v 136.998032 890.258606 838.893616
v -1881.485962 723.569031 4.018282
v -1778.994019 733.363403 185.658676
v -1778.994019 733.363403 838.893677
v -1881.485962 723.569031 1018.092041
v -1881.485962 727.649963 4.018282
v -1881.485962 727.649963 1018.092041
v 0.288136 907.398804 3121.009277
v -142.667862 893.739014 3121.009277
v -1.799864 723.569031 3121.009277
v 0.288135 903.317749 3084.334961
v 136.998138 890.258606 3084.334961
v -1.799865 723.569031 3084.334961
v 0.287865 907.398804 -3094.125000
v -142.668137 893.739014 -3094.125000
v -142.668030 893.739014 -828.281982
v 0.287978 907.398804 -502.941010
v -142.668015 893.739014 -177.622208
v -1881.485840 727.649963 3121.009277
v -1778.993896 737.444397 1853.544800
v -1778.994019 737.444397 1197.312744
v -1778.994019 737.444397 838.893677
v 1903.572021 727.649963 -502.963287
v 1903.571899 727.649963 -3094.125000
v 1775.538086 739.885315 -828.282043
v 1775.538086 739.885315 -177.622284
v 136.998138 894.339661 3121.009277
v 136.998077 894.339661 1853.544678
v 0.288067 907.398804 1525.428589
v 136.998047 894.339661 1197.312622
v 136.998032 894.339661 838.893616
v 1903.571899 723.569031 -3094.125000
v 1903.572021 723.569031 -502.963287
v 1903.572021 723.569031 512.287170
v 1903.572144 723.569031 1525.428467
v 1903.572144 727.649963 1525.428467
v 0.287865 903.317749 -3094.125000
v 136.997864 890.258606 -3094.125000
v 136.997971 890.258606 -828.281982
v 0.287978 903.317749 -502.941010
v 136.997986 890.258606 -177.622208
v 1775.538208 735.804260 1853.544556
v 1775.538086 735.804260 1197.312500
v 1775.538086 735.804260 838.893555
v -1881.486084 723.569031 -3094.125000
v -1778.994019 733.363403 -828.281921
v -1778.994019 733.363403 -177.622131
v -142.667862 889.658020 3084.334961
v -142.667923 889.658020 1853.544678
v 0.288067 903.317749 1525.428589
v -142.667953 889.658020 1197.312622
v -142.667969 889.658020 838.893616
v -1881.486084 727.649963 -3094.125000
v -1881.485840 723.569031 3121.009277
v -142.668137 889.658020 -3094.125000
v -142.667984 889.658020 185.658600
v -1778.994019 737.444397 -828.281921
v -1778.994019 737.444397 -177.622131
v -1778.994019 737.444397 185.658676
v -142.667923 893.739014 1853.544678
v -142.667953 893.739014 1197.312622
v -142.668030 889.658020 -828.281982
v -142.668015 889.658020 -177.622208
v -1778.993896 733.363403 1853.544800
v -1778.994019 733.363403 1197.312744
v 136.997864 894.339661 -3094.125000
v 136.998016 894.339661 185.658600
v 136.997971 894.339661 -828.281982
v 136.997986 894.339661 -177.622208
v 1775.538208 739.885315 1853.544556
v 1775.538086 739.885315 1197.312500
v 1775.538086 735.804260 -828.282043
v 1775.538086 735.804260 -177.622284
v 1775.538086 735.804260 185.658524
v 136.998077 890.258606 1853.544678
v 136.998047 890.258606 1197.312622
v 111.959862 908.430603 -3095.323730
v 111.959862 906.159119 -3095.323730
v 82.169861 906.159119 -3095.323730
v 50.561867 914.290344 -3095.323730
v 82.170135 906.159119 3121.053467
v 50.562138 914.290344 3121.053467
v 2.286136 907.175476 3121.075684
v 82.170135 899.544800 3121.075684
v -1.691864 907.175476 3121.075684
v -82.025864 899.498596 3121.075684
v -82.026138 899.498596 -3095.323730
v -1.692135 907.175476 -3095.323730
v -82.025864 906.159119 3121.053467
v -82.026138 906.159119 -3095.323730
v 82.169861 899.544800 -3095.323730
v 2.285865 907.175476 -3095.323730
v 111.960136 908.430603 3121.053467
v 111.960136 906.159119 3121.053467
v -49.985863 914.290344 3121.053467
v -49.986134 914.290344 -3095.323730
v -111.383858 908.430603 3121.053467
v -111.384132 908.430603 -3095.323730
v -111.383858 906.159119 3121.053467
v -111.384132 906.159119 -3095.323730
vn 0.742726 0.595932 0.305324
vn 0.408248 -0.408248 0.816497
vn 0.532742 -0.820409 -0.207642
vn -0.000031 1.000000 0.000000
vn -0.386874 0.903359 0.185123
vn -0.580359 0.788889 -0.202082
vn 0.780391 0.625292 -0.000000
vn 0.016007 0.925213 0.379110
vn -0.249600 0.861856 -0.441479
vn 0.000030 -1.000000 -0.000000
vn -0.015960 -0.925215 0.379107
vn 0.249650 -0.861847 -0.441468
vn -0.478607 -0.878029 0.000000
vn 0.421272 -0.878568 0.225053
vn 0.580370 -0.788881 -0.202080
vn -0.752562 -0.658522 0.000000
vn -0.704218 0.709984 0.000000
vn -0.671617 0.740898 0.000000
vn -0.000028 0.889999 0.455963
vn -0.154111 0.690107 0.707108
vn 0.000000 -0.600000 0.800000
vn 0.000027 -0.889999 -0.455963
vn -0.179860 -0.812332 -0.554768
vn -0.003535 -0.448249 -0.893902
vn -0.000028 0.889999 -0.455963
vn -0.154111 0.690108 -0.707107
vn -0.421278 0.878565 0.225053
vn -0.000031 1.000000 0.000000
vn -0.651070 0.718278 -0.245325
vn -0.651078 0.718271 0.245326
vn 0.097158 0.821833 -0.561382
vn 0.249065 0.861951 0.441596
vn 0.249065 0.861951 0.441596
vn -0.017043 0.925164 -0.379184
vn 0.704218 0.709984 -0.000000
vn 0.421503 0.748872 -0.511396
vn -0.097879 0.821853 0.561229
vn -0.355493 0.771850 -0.527137
vn 0.704218 0.709984 -0.000000
vn 0.152852 0.690347 0.707147
vn 0.420687 0.878840 -0.225086
vn -0.000031 1.000000 0.000000
vn 0.420686 0.878840 -0.225086
vn 0.650595 0.718679 0.245409
vn 0.385907 0.903766 -0.185159
vn -0.000031 1.000000 0.000000
vn 0.581176 -0.724334 -0.370912
vn 0.478608 -0.878029 -0.000000
vn 0.625292 -0.780391 -0.000000
vn 0.780391 0.625292 -0.000000
vn 0.277578 -0.960703 -0.000000
vn 0.000021 -0.698451 -0.715658
vn -0.152864 -0.690409 -0.707084
vn 0.029848 -0.889633 0.455701
vn 0.000030 -1.000000 -0.000000
vn 0.355528 -0.771842 -0.527125
vn -0.420195 -0.879049 -0.225189
vn -0.650623 -0.718656 0.245404
vn 0.277577 -0.960703 -0.000000
vn -0.385950 -0.903747 -0.185157
vn -0.111151 -0.940462 -0.321210
vn 0.471423 -0.834572 0.285045
vn 0.580371 -0.788881 -0.202080
vn 0.176869 -0.813243 -0.554394
vn -0.029191 -0.889619 -0.455769
vn 0.000030 -1.000000 -0.000000
vn -0.354918 -0.771980 0.527333
vn 0.017029 -0.925165 -0.379183
vn 0.000030 -1.000000 -0.000000
vn 0.000030 -1.000000 -0.000000
vn -0.599228 0.661066 -0.451572
vn -0.088802 -0.965336 0.245440
vn -0.651078 0.718271 0.245326
vn 0.154111 -0.690109 -0.707106
vn -0.249079 -0.861949 0.441593
vn 0.354927 0.771979 0.527329
vn -0.017045 0.925164 -0.379184
vn 0.354908 0.771982 0.527336
vn -0.000028 0.889999 0.455963
vn -0.580359 0.788889 -0.202081
vn -0.000028 0.889999 0.455963
vn -0.000031 1.000000 0.000000
vn -0.421262 0.878572 0.225054
vn -0.000031 1.000000 0.000000
vn -0.000031 1.000000 0.000000
vn -0.000031 1.000000 0.000000
vn 0.000021 -0.698451 -0.715658
vn -0.249079 -0.861949 0.441593
vn -0.029208 -0.889620 -0.455767
vn 0.000030 -1.000000 -0.000000
vn -0.249079 -0.861949 0.441593
vn 0.651061 -0.718285 -0.245329
vn 0.176869 -0.813243 -0.554394
vn 0.386886 -0.903354 0.185122
vn -0.088802 -0.965336 0.245440
vn -0.003535 -0.448249 -0.893902
vn -0.421262 0.878572 0.225054
vn -0.111151 -0.940462 -0.321210
vn -0.671617 0.740898 0.000000
vn -0.599228 0.661066 -0.451572
vn 0.354927 0.771979 0.527329
vn 0.354908 0.771982 0.527336
vn -0.088802 -0.965336 0.245440
vn -0.752562 -0.658522 0.000000
vn 0.386886 -0.903354 0.185122
vn 0.580370 -0.788881 -0.202080
vn 0.120186 0.541523 -0.832051
vn 0.579910 0.789208 0.202130
vn -0.000031 1.000000 0.000000
vn -0.000028 0.889999 -0.455963
vn 0.526367 0.832963 0.170619
vn 0.420127 0.879099 -0.225117
vn -0.000031 1.000000 0.000000
vn -0.000031 1.000000 0.000000
vn -0.000031 1.000000 0.000000
vn -0.250124 0.861793 -0.441305
vn -0.030430 0.889644 0.455640
vn -0.579539 -0.789460 0.202206
vn -0.420161 -0.879083 -0.225116
vn -0.579948 -0.789180 0.202126
vn 0.355528 -0.771842 -0.527125
vn 0.000027 -0.889999 -0.455963
vn 0.249649 -0.861847 -0.441468
vn 0.000027 -0.889999 -0.455963
vn 0.000030 -1.000000 -0.000000
vn 0.030468 -0.889645 0.455636
vn 0.000030 -1.000000 -0.000000
vn 0.000030 -1.000000 -0.000000
vn 0.421503 0.748872 -0.511396
vn 0.016007 0.925213 0.379110
vn 0.249649 -0.861847 -0.441468
vn 0.030468 -0.889645 0.455636
vn -0.250124 0.861793 -0.441305
vn 0.780391 0.625292 -0.000000
vn 0.625292 -0.780390 -0.000000
vn 0.354927 0.771979 0.527329
vn -0.017045 0.925164 -0.379184
vn -0.029208 -0.889620 -0.455767
vn -0.017043 0.925164 -0.379184
vn -0.249079 -0.861949 0.441593
vn 0.017029 -0.925165 -0.379183
vn -0.029191 -0.889619 -0.455769
vn -0.354918 -0.771980 0.527333
vn -0.650623 -0.718656 0.245404
vn 0.249649 -0.861847 -0.441468
vn 0.030468 -0.889645 0.455636
vn 0.016007 0.925213 0.379110
vn 0.579910 0.789208 0.202130
vn 0.385907 0.903766 -0.185159
vn -0.015960 -0.925215 0.379107
vn 0.029848 -0.889633 0.455701
vn 0.526367 0.832962 0.170619
vn 0.420127 0.879099 -0.225117
vn -0.420161 -0.879083 -0.225116
vn 0.456900 0.621301 -0.636575
vn 0.816497 -0.408248 -0.408248
vn 0.218218 -0.436434 -0.872872
vn 0.043634 0.596318 -0.801561
vn 0.534700 -0.266952 0.801768
vn 0.087406 0.591904 0.801255
vn 0.198245 -0.684268 0.701767
vn -0.051497 -0.702949 0.709374
vn 0.102985 -0.697284 0.709358
vn -0.488701 -0.608990 0.624743
vn -0.580607 -0.724621 -0.371241
vn 0.043687 -0.596366 -0.801523
vn -0.408385 -0.407967 0.816569
vn -0.235702 -0.235705 -0.942809
vn 0.198245 -0.684268 0.701767
vn 0.786935 -0.430971 -0.441585
vn 0.198245 -0.684268 0.701767
vn -0.103005 -0.697669 -0.708977
vn 0.705881 0.310650 0.636575
vn 0.408248 -0.816497 0.408248
vn -0.043666 0.596716 0.801264
vn -0.102922 0.697657 -0.709001
vn 0.102985 -0.697284 0.709358
vn -0.456900 0.621301 0.636575
vn -0.705883 0.310644 -0.636576
vn -0.816497 -0.408248 0.408248
vn -0.408248 -0.816497 -0.408248
vn -0.408385 -0.407967 0.816569
vn -0.043666 0.596716 0.801264
vn -0.051497 -0.702949 0.709374
vn 0.087406 0.591904 0.801255
vn 0.043687 -0.596366 -0.801523
vn 0.043634 0.596318 -0.801562
vn -0.235702 -0.235705 -0.942809
vt 0.066900 0.454800
vt 0.067700 0.454800
vt 0.067700 0.457600
vt 0.553200 0.170100
vt 0.539600 0.191300
vt 0.539600 0.148800
vt 0.734400 0.170100
vt 0.722200 0.191300
vt 0.722200 0.148800
vt 0.170900 0.178200
vt 0.183400 0.200500
vt 0.183400 0.155900
vt 0.000000 0.212900
vt 0.009300 0.200500
vt 0.009300 0.155900
vt 0.000000 0.143600
vt 0.639600 0.795100
vt 0.639600 0.794200
vt 0.704700 0.794200
vt 0.704700 0.795100
vt 0.036700 0.621400
vt 0.033900 0.634000
vt 0.000000 0.621600
vt 0.374100 0.599900
vt 0.376800 0.588100
vt 0.410400 0.600100
vt 0.553200 0.405100
vt 0.539600 0.405100
vt 0.539600 0.257400
vt 0.553200 0.236200
vt 0.539600 0.215000
vt 0.374100 0.000000
vt 0.383900 0.082600
vt 0.383900 0.125400
vt 0.374100 0.137100
vt 0.383900 0.148800
vt 0.734400 0.236200
vt 0.734400 0.405100
vt 0.722200 0.257400
vt 0.722200 0.215000
vt 0.553200 0.000000
vt 0.566300 0.000000
vt 0.566300 0.082600
vt 0.553200 0.104000
vt 0.566300 0.125400
vt 0.566300 0.148800
vt 0.067700 0.922500
vt 0.066900 0.922500
vt 0.066900 0.727500
vt 0.067700 0.727500
vt 0.066900 0.651100
vt 0.067700 0.651100
vt 0.066900 0.574900
vt 0.067700 0.574900
vt 0.170900 0.424500
vt 0.183400 0.424500
vt 0.183400 0.269700
vt 0.170900 0.247500
vt 0.183400 0.225300
vt 0.343800 0.109000
vt 0.343800 0.002500
vt 0.332200 0.086600
vt 0.332200 0.131400
vt 0.332200 0.155900
vt 0.343800 0.178200
vt 0.000000 0.424500
vt 0.009300 0.269700
vt 0.009300 0.225300
vt 0.170900 0.002500
vt 0.158000 0.002500
vt 0.158000 0.086600
vt 0.170900 0.109000
vt 0.158000 0.131400
vt 0.158000 0.155900
vt 0.440700 0.795100
vt 0.440700 0.794200
vt 0.839700 0.794200
vt 0.839700 0.795100
vt 0.382900 0.850700
vt 0.374100 0.906800
vt 0.375500 0.850100
vt 0.000800 0.786200
vt 0.000000 0.786200
vt 0.738900 0.435400
vt 0.738900 0.436300
vt 0.602100 0.473100
vt 0.602100 0.474000
vt 0.158000 0.200500
vt 0.376900 0.612300
vt 0.374100 0.405100
vt 0.383900 0.257400
vt 0.383900 0.215000
vt 0.383900 0.191300
vt 0.539600 0.082600
vt 0.539600 0.000000
vt 0.539600 0.125400
vt 0.158000 0.269700
vt 0.158000 0.424500
vt 0.158000 0.225300
vt 0.000000 0.000000
vt 0.009300 0.086600
vt 0.009300 0.131400
vt 0.410500 0.762600
vt 0.374100 0.203200
vt 0.590900 0.476200
vt 0.590900 0.477100
vt 0.580100 0.473400
vt 0.580100 0.474300
vt 0.566300 0.191300
vt 0.034100 0.609500
vt 0.410500 0.435400
vt 0.566300 0.257400
vt 0.566300 0.405100
vt 0.566300 0.215000
vt 0.734400 0.000000
vt 0.722200 0.082600
vt 0.722200 0.125400
vt 0.343800 0.424500
vt 0.332200 0.269700
vt 0.332200 0.225300
vt 0.332200 0.200500
vt 0.183400 0.086600
vt 0.183400 0.002500
vt 0.183400 0.131400
vt 0.374100 0.792900
vt 0.381500 0.793500
vt 0.000800 0.454800
vt 0.000000 0.454800
vt 0.440700 0.438200
vt 0.440700 0.437300
vt 0.734400 0.104000
vt 0.343800 0.247500
vt 0.852100 0.110600
vt 0.800700 0.110600
vt 0.800700 0.109900
vt 0.852100 0.109900
vt 0.918900 0.826300
vt 0.786600 0.827300
vt 0.786800 0.826400
vt 0.919200 0.825400
vt 0.654400 0.890000
vt 0.608400 0.890000
vt 0.608400 0.889200
vt 0.654400 0.889200
vt 0.907600 0.468500
vt 0.769200 0.436300
vt 0.907600 0.467700
vt 0.769200 0.435400
vt 0.903300 0.700200
vt 0.851800 0.700200
vt 0.851800 0.699500
vt 0.903300 0.699500
vt 0.894100 0.000900
vt 0.764700 0.079600
vt 0.764700 0.078700
vt 0.894100 0.000000
vt 0.303000 0.518400
vt 0.256800 0.518400
vt 0.256800 0.517500
vt 0.303000 0.517500
vt 0.232400 0.551400
vt 0.098200 0.551800
vt 0.232200 0.550500
vt 0.098000 0.551000
vt 0.851900 0.666300
vt 0.903600 0.666300
vt 0.903600 0.667000
vt 0.851900 0.667000
vt 0.440700 0.889200
vt 0.577900 0.889200
vt 0.441000 0.890100
vt 0.578200 0.890000
vt 0.876000 0.634500
vt 0.922400 0.634500
vt 0.922400 0.635300
vt 0.876000 0.635300
vt 0.440900 0.858100
vt 0.584600 0.857600
vt 0.584400 0.858400
vt 0.440700 0.858900
vt 0.921500 0.795000
vt 0.870000 0.795000
vt 0.870000 0.794200
vt 0.921500 0.794200
vt 0.756100 0.826200
vt 0.613700 0.826300
vt 0.613900 0.825500
vt 0.756300 0.825400
vt 0.876200 0.602800
vt 0.922700 0.602800
vt 0.922700 0.603600
vt 0.876200 0.603600
vt 0.583400 0.827300
vt 0.440900 0.826200
vt 0.583300 0.826500
vt 0.440700 0.825400
vt 0.339100 0.455500
vt 0.287800 0.455500
vt 0.287800 0.454800
vt 0.339100 0.454800
vt 0.226300 0.520200
vt 0.098000 0.518500
vt 0.098300 0.517500
vt 0.226600 0.519300
vt 0.614800 0.857600
vt 0.661100 0.857600
vt 0.661100 0.858400
vt 0.614800 0.858400
vt 0.244400 0.487300
vt 0.098200 0.487200
vt 0.244200 0.486500
vt 0.098000 0.486400
vt 0.486800 0.921200
vt 0.440700 0.921200
vt 0.440700 0.920400
vt 0.486800 0.920400
vt 0.769600 0.251700
vt 0.764700 0.109900
vt 0.765500 0.110000
vt 0.770500 0.251900
vt 0.274600 0.486400
vt 0.325700 0.486400
vt 0.325700 0.487100
vt 0.274600 0.487100
vt 0.098000 0.454800
vt 0.257400 0.455300
vt 0.098100 0.455500
vt 0.257500 0.456100
vt 0.020400 0.818200
vt 0.020400 0.817800
vt 0.017600 0.817800
vt 0.014800 0.819300
vt 0.901900 0.558500
vt 0.899000 0.560000
vt 0.901900 0.557200
vt 0.894600 0.558700
vt 0.440700 0.565000
vt 0.440700 0.572500
vt 0.853900 0.572500
vt 0.853900 0.565000
vt 0.440700 0.634500
vt 0.440700 0.636000
vt 0.845700 0.634500
vt 0.845700 0.636000
vt 0.440700 0.604200
vt 0.440700 0.602800
vt 0.845900 0.602800
vt 0.845900 0.604200
vt 0.440700 0.557200
vt 0.440700 0.564700
vt 0.853900 0.564700
vt 0.853900 0.557200
vt 0.440700 0.733200
vt 0.440700 0.732700
vt 0.846000 0.732700
vt 0.846000 0.733200
vt 0.440700 0.666300
vt 0.440700 0.669200
vt 0.821600 0.669200
vt 0.821600 0.666300
vt 0.440700 0.512700
vt 0.440700 0.507400
vt 0.876700 0.507400
vt 0.876700 0.512700
vt 0.440700 0.521500
vt 0.876700 0.521500
vt 0.440700 0.526900
vt 0.876700 0.526900
vt 0.440700 0.699500
vt 0.440700 0.702400
vt 0.821500 0.702400
vt 0.821500 0.699500
vt 0.440700 0.763500
vt 0.440700 0.763900
vt 0.845900 0.763900
vt 0.845900 0.763500
vt 0.886900 0.558500
vt 0.886900 0.557200
vt 0.894200 0.558700
vt 0.889800 0.560000
vt 0.884200 0.558900
vt 0.884200 0.558500
vt 0.904600 0.558500
vt 0.904600 0.558900
vt 0.010400 0.818000
vt 0.010000 0.818000
vt 0.005600 0.819300
vt 0.002700 0.816500
vt 0.002700 0.817800
vt 0.017600 0.816500
vt 0.000000 0.817800
vt 0.000000 0.818200
f 1/1/1 2/2/2 3/3/3
f 4/4/4 5/5/5 6/6/6
f 7/7/7 8/8/8 9/9/9
f 10/10/10 11/11/11 12/12/12
f 13/13/13 14/14/14 15/15/15
f 13/13/13 15/15/15 16/16/16
f 17/17/17 13/18/13 16/19/16
f 17/17/17 16/19/16 18/20/18
f 19/21/19 20/22/20 21/23/21
f 22/24/22 23/25/23 24/26/24
f 25/27/25 26/28/26 27/29/27
f 25/27/25 27/29/27 28/30/28
f 28/30/28 27/29/27 29/31/29
f 28/30/28 29/31/29 5/5/5
f 28/30/28 5/5/5 4/4/4
f 30/32/30 31/33/31 32/34/32
f 30/32/30 32/34/32 18/35/18
f 18/35/18 32/34/33 33/36/34
f 34/37/35 35/38/36 36/39/37
f 34/37/35 36/39/37 37/40/38
f 34/37/35 37/40/38 8/8/8
f 34/37/39 8/8/8 7/7/7
f 19/41/19 38/42/40 39/43/41
f 19/41/19 39/43/41 40/44/42
f 40/44/42 39/43/43 41/45/44
f 40/44/42 41/45/44 42/46/45
f 40/44/42 42/46/45 4/4/46
f 43/47/47 35/48/36 34/49/35
f 43/47/47 34/49/35 44/50/48
f 44/50/48 34/49/35 7/51/7
f 44/50/48 7/51/7 45/52/49
f 1/1/1 3/3/3 47/53/50
f 3/3/3 46/54/51 47/53/50
f 47/53/50 46/54/51 45/52/49
f 47/53/50 45/52/49 7/51/7
f 48/55/52 49/56/53 50/57/54
f 48/55/52 50/57/54 51/58/55
f 51/58/55 50/57/54 52/59/56
f 51/58/55 52/59/56 11/11/11
f 51/58/55 11/11/11 10/10/10
f 46/60/51 3/61/3 53/62/57
f 46/60/51 53/62/57 54/63/58
f 46/60/59 54/63/58 55/64/60
f 46/60/59 55/64/60 45/65/49
f 56/66/61 57/67/62 58/68/63
f 56/66/61 58/68/63 13/13/13
f 13/13/13 58/68/63 14/14/14
f 22/69/22 59/70/64 60/71/65
f 22/69/22 60/71/65 61/72/66
f 61/72/66 60/71/65 62/73/67
f 61/72/66 62/73/67 63/74/68
f 61/72/69 63/74/68 10/10/70
f 64/75/71 56/76/61 13/18/13
f 64/75/71 13/18/13 17/17/17
f 16/19/16 65/77/72 30/78/73
f 16/19/16 30/78/73 18/20/18
f 21/79/21 65/80/72 24/81/24
f 20/22/20 30/82/30 65/83/72
f 56/84/61 64/85/71 66/86/74
f 64/85/71 26/87/26 66/86/74
f 67/88/75 10/10/70 63/74/68
f 20/22/20 65/83/72 21/23/21
f 59/89/64 22/24/22 24/26/24
f 64/90/71 68/91/76 26/28/26
f 68/91/76 27/29/27 26/28/26
f 69/92/77 70/93/78 5/5/5
f 69/92/77 5/5/5 29/31/29
f 19/41/79 40/44/42 71/94/80
f 19/41/81 71/94/80 20/95/20
f 71/94/80 40/44/82 72/96/83
f 40/44/84 4/4/85 6/6/6
f 40/44/86 6/6/6 72/96/83
f 48/55/87 51/58/55 73/97/88
f 48/55/87 73/97/88 66/98/74
f 73/97/88 51/58/55 74/99/89
f 51/58/90 10/10/70 67/88/75
f 51/58/90 67/88/91 74/99/89
f 65/100/72 75/101/92 59/70/64
f 75/101/92 60/71/65 59/70/93
f 76/102/94 15/15/15 63/74/68
f 76/102/94 63/74/68 62/73/67
f 65/103/95 59/89/64 24/26/96
f 20/95/20 71/94/80 31/33/31
f 20/95/20 31/33/31 30/32/73
f 72/96/83 6/6/6 33/36/34
f 72/96/97 33/36/34 32/34/33
f 66/98/74 73/97/88 57/67/62
f 66/98/74 57/67/62 56/66/98
f 74/99/89 67/88/91 14/14/14
f 74/99/89 14/14/14 58/68/63
f 17/104/17 18/35/99 33/36/34
f 17/104/17 33/36/34 70/93/78
f 64/90/100 17/104/17 69/92/77
f 64/90/71 69/92/77 68/91/101
f 69/92/77 17/104/17 70/93/102
f 65/100/103 16/16/104 76/102/94
f 65/100/103 76/102/105 75/101/92
f 76/102/94 16/16/104 15/15/106
f 48/105/52 66/86/74 26/87/26
f 48/105/52 26/87/26 25/106/25
f 49/107/53 48/105/52 77/108/107
f 48/105/52 25/106/25 77/108/107
f 78/109/108 4/4/109 42/46/45
f 38/110/40 19/21/19 21/23/21
f 23/25/23 3/111/3 24/26/96
f 25/27/110 28/30/28 79/112/111
f 25/27/110 79/112/111 77/113/107
f 79/112/111 28/30/28 80/114/112
f 28/30/113 4/4/114 78/109/108
f 28/30/115 78/109/108 80/114/112
f 1/115/1 81/116/116 38/42/40
f 81/116/116 39/43/41 38/42/40
f 82/117/117 9/9/9 42/46/45
f 82/117/117 42/46/45 41/45/44
f 43/118/47 83/119/118 49/56/53
f 83/119/118 50/57/54 49/56/53
f 84/120/119 85/121/120 11/11/11
f 84/120/119 11/11/11 52/59/121
f 22/69/122 61/72/66 86/122/123
f 22/69/124 86/122/123 23/123/23
f 86/122/123 61/72/125 87/124/126
f 61/72/127 10/10/10 12/12/12
f 61/72/128 12/12/12 87/124/126
f 21/79/21 24/81/96 3/125/3
f 21/79/21 3/125/3 2/126/2
f 1/127/1 38/110/40 2/128/2
f 49/107/53 77/108/107 35/129/36
f 49/107/53 35/129/36 43/130/47
f 2/128/2 38/110/40 21/23/21
f 77/113/107 79/112/111 35/38/36
f 79/112/111 36/39/37 35/38/129
f 80/114/112 78/109/108 8/8/8
f 80/114/112 8/8/130 37/40/38
f 23/123/23 86/122/131 53/62/57
f 23/123/23 53/62/57 3/61/3
f 87/124/132 12/12/12 55/64/60
f 87/124/132 55/64/60 54/63/58
f 85/121/120 45/65/49 55/64/60
f 1/115/1 47/131/50 81/116/133
f 81/116/116 47/131/50 82/117/117
f 47/131/134 7/7/7 9/9/9
f 47/131/50 9/9/9 82/117/117
f 43/118/47 44/132/48 83/119/118
f 83/119/118 44/132/48 84/120/119
f 44/132/48 45/65/135 85/121/120
f 44/132/48 85/121/120 84/120/119
f 68/133/136 69/134/137 58/135/63
f 68/133/136 58/135/63 57/136/62
f 69/137/77 29/138/29 74/139/89
f 69/137/77 74/139/89 58/140/63
f 29/141/29 27/142/27 73/143/88
f 29/141/29 73/143/88 74/144/138
f 27/145/27 68/146/76 73/147/88
f 68/146/76 57/148/62 73/147/88
f 70/149/78 33/150/139 15/151/15
f 70/149/78 15/151/15 14/152/14
f 33/153/34 6/154/6 63/155/68
f 33/153/34 63/155/68 15/156/15
f 6/157/6 5/158/5 67/159/140
f 6/157/6 67/159/140 63/160/141
f 5/161/5 70/162/78 67/163/75
f 70/162/78 14/164/14 67/163/75
f 75/165/92 76/166/105 32/167/33
f 75/165/92 32/167/33 31/168/31
f 76/169/94 62/170/67 32/171/32
f 62/170/67 72/172/83 32/171/32
f 62/173/67 60/174/142 71/175/80
f 62/173/143 71/175/80 72/176/97
f 60/177/65 75/178/92 31/179/31
f 60/177/65 31/179/31 71/180/80
f 81/181/116 82/182/117 54/183/144
f 81/181/116 54/183/144 53/184/57
f 82/185/117 41/186/44 87/187/126
f 82/185/117 87/187/126 54/188/58
f 41/189/44 39/190/41 86/191/145
f 41/189/44 86/191/145 87/192/146
f 39/193/41 81/194/116 86/195/123
f 81/194/116 53/196/57 86/195/123
f 9/197/9 8/198/147 85/199/120
f 9/197/9 85/199/120 55/200/60
f 8/201/8 78/202/108 11/203/11
f 8/201/8 11/203/11 85/204/120
f 78/205/148 42/206/149 12/207/12
f 78/205/148 12/207/12 11/208/150
f 42/209/45 9/210/9 12/211/12
f 9/210/9 55/212/60 12/211/12
f 52/213/56 50/214/151 79/215/152
f 52/213/56 79/215/152 80/216/153
f 50/217/54 83/218/118 36/219/37
f 50/217/54 36/219/37 79/220/111
f 83/221/118 84/222/154 37/223/38
f 83/221/118 37/223/38 36/224/37
f 84/225/119 52/226/56 37/227/38
f 52/226/56 80/228/112 37/227/38
f 88/229/155 89/230/156 90/231/157
f 88/229/155 90/231/157 91/232/158
f 92/233/159 93/234/160 95/235/161
f 93/234/160 94/236/162 95/235/161
f 96/237/163 97/238/164 98/239/165
f 96/237/163 98/239/165 99/240/166
f 97/241/164 100/242/167 98/243/165
f 100/242/167 101/244/168 98/243/165
f 92/245/159 95/246/169 102/247/170
f 92/245/159 102/247/170 90/248/157
f 95/249/171 94/250/162 103/251/172
f 95/249/171 103/251/172 102/252/170
f 104/253/173 105/254/174 89/255/156
f 104/253/173 89/255/156 88/256/155
f 105/257/174 92/258/159 90/259/157
f 105/257/174 90/259/157 89/260/156
f 93/261/160 104/262/173 88/263/155
f 93/261/160 88/263/155 91/264/158
f 106/265/175 93/261/160 91/264/158
f 106/265/175 91/264/158 107/266/176
f 94/250/162 96/237/177 99/240/166
f 94/250/162 99/240/166 103/251/172
f 108/267/178 106/265/175 107/266/176
f 108/267/178 107/266/176 109/268/179
f 100/269/167 110/270/180 111/271/181
f 100/269/167 111/271/181 101/272/168
f 110/273/180 108/274/178 109/275/179
f 110/273/180 109/275/179 111/276/181
f 100/277/182 97/278/164 96/279/163
f 100/277/167 96/279/163 106/280/183
f 106/280/175 96/279/177 94/236/184
f 106/280/183 94/236/162 93/234/160
f 108/281/178 110/282/180 100/277/167
f 108/281/178 100/277/167 106/280/175
f 92/233/159 105/283/174 104/284/173
f 92/233/159 104/284/173 93/234/185
f 103/285/172 99/286/186 91/232/187
f 99/286/166 107/287/176 91/232/158
f 99/286/166 98/288/165 101/289/168
f 99/286/186 101/289/168 107/287/176
f 90/231/157 102/290/170 103/285/172
f 90/231/157 103/285/172 91/232/158
f 101/289/168 111/291/181 109/292/179
f 101/289/188 109/292/179 107/287/176
