#
#
#

mtllib Warehouse - 복사본 (4) - 복사본.mtl


#
# Floor 메시
#
g Floor 메시


#
# Floor 메시_Floor_Tiles
#
usemtl Floor 메시_Floor_Tiles

v -1955.888184 2.516900 -3168.027832
v -1955.887939 2.516900 3141.855957
v 1979.272217 2.516900 3141.855957
v 1979.271973 2.516900 -3168.027832
v 1979.272217 0.561100 3141.855957
v -1955.887939 0.561100 3141.855957
v -1955.888184 0.561100 -3168.027832
v 1979.271973 0.561100 -3168.027832
vn -0.333333 0.666667 -0.666667
vn -0.816497 0.408248 0.408248
vn 0.333333 0.666667 0.666667
vn 0.816497 0.408248 -0.408248
vn 0.666667 -0.666667 0.333333
vn -0.408248 -0.408248 0.816497
vn -0.666667 -0.666667 -0.333333
vn 0.408248 -0.408248 -0.816497
vt 0.628700 0.934900
vt 0.002000 0.934900
vt 0.002000 0.476000
vt 0.628700 0.476000
vt 0.002000 0.002000
vt 0.002000 0.460800
vt 0.628700 0.460800
vt 0.628700 0.002000
vt 0.002000 0.950100
vt 0.614000 0.950100
vt 0.614000 0.950600
vt 0.002000 0.950600
vt 0.396200 0.981500
vt 0.002000 0.981500
vt 0.002000 0.982200
vt 0.396200 0.982200
vt 0.614000 0.965800
vt 0.002000 0.965800
vt 0.002000 0.966300
vt 0.614000 0.966300
vt 0.002000 0.997300
vt 0.396100 0.997300
vt 0.396100 0.998000
vt 0.002000 0.998000
f 1/1/1 2/2/2 3/3/3
f 1/1/1 3/3/3 4/4/4
f 5/5/5 6/6/6 7/7/7
f 5/5/5 7/7/7 8/8/8
f 5/9/5 8/10/8 4/11/4
f 5/9/5 4/11/4 3/12/3
f 8/13/8 7/14/7 1/15/1
f 8/13/8 1/15/1 4/16/4
f 7/17/7 6/18/6 2/19/2
f 7/17/7 2/19/2 1/20/1
f 6/21/6 5/22/5 3/23/3
f 6/21/6 3/23/3 2/24/2
