#
#
#

mtllib FuturisticApartment - 복사본 - 복사본.mtl


#
# Door_Glass 메시
#
g Door_Glass 메시


#
# Door_Glass 메시_Material
#
usemtl Door_Glass 메시_Material

v -178.627869 243.136703 -666.580200
v -249.763901 417.089172 -666.580261
v -178.627869 417.089172 -666.580261
v -249.763901 243.136703 -666.580200
v -249.763901 417.089172 -665.936584
v -178.627869 243.136703 -665.936523
v -178.627869 417.089172 -665.936584
v -249.763901 243.136703 -665.936523
vn 0.000000 -0.000000 -1.000000
vn 0.000000 -0.000000 -1.000000
vn 0.000000 -0.000000 -1.000000
vn 0.000000 0.000000 1.000000
vn 0.000000 0.000000 1.000000
vn 0.000000 0.000000 1.000000
vt 0.402782 0.062730
vt 0.621654 0.623301
vt 0.402776 0.623298
vt 0.621660 0.062733
vt 0.057281 0.623302
vt 0.276150 0.062731
vt 0.276159 0.623298
vt 0.057272 0.062735
f 1/1/1 2/2/1 3/3/2
f 2/2/1 1/1/1 4/4/3
f 5/5/4 6/6/4 7/7/5
f 6/6/4 5/5/4 8/8/6


#
# Door_Glass_001 메시
#
g Door_Glass_001 메시


#
# Door_Glass_001 메시_Material
#
usemtl Door_Glass_001 메시_Material

v -178.627869 243.136703 -31.919451
v -249.763901 417.089172 -31.919474
v -178.627869 417.089172 -31.919479
v -249.763901 243.136703 -31.919443
v -249.763901 417.089172 -31.624140
v -178.627869 243.136703 -31.624117
v -178.627869 417.089172 -31.624147
v -249.763901 243.136703 -31.624109
vn -0.000000 -0.000000 -1.000000
vn -0.000000 -0.000000 -1.000000
vn -0.000000 -0.000000 -1.000000
vn 0.000000 0.000000 1.000000
vn 0.000000 0.000000 1.000000
vn 0.000000 0.000000 1.000000
vt 0.402782 0.062730
vt 0.621654 0.623301
vt 0.402776 0.623298
vt 0.621660 0.062733
vt 0.057281 0.623302
vt 0.276150 0.062731
vt 0.276159 0.623298
vt 0.057272 0.062735
f 9/9/7 10/10/7 11/11/8
f 10/10/7 9/9/7 12/12/9
f 13/13/10 14/14/10 15/15/11
f 14/14/10 13/13/10 16/16/12


#
# Door_Glass_002 메시
#
g Door_Glass_002 메시


#
# Door_Glass_002 메시_Material
#
usemtl Door_Glass_002 메시_Material

v 152.182877 243.136703 107.435966
v 152.182877 417.089172 178.571991
v 152.182877 417.089172 107.435966
v 152.182877 243.136703 178.571991
v 152.465195 417.089172 178.571991
v 152.465179 243.136703 107.435966
v 152.465195 417.089172 107.435966
v 152.465179 243.136703 178.571991
vn -1.000000 0.000000 0.000000
vn 1.000000 -0.000000 0.000000
vn 1.000000 -0.000000 0.000000
vn 1.000000 0.000000 0.000000
vt 0.402782 0.062730
vt 0.621654 0.623301
vt 0.402776 0.623298
vt 0.621660 0.062733
vt 0.057281 0.623302
vt 0.276150 0.062731
vt 0.276159 0.623298
vt 0.057272 0.062735
f 17/17/13 18/18/13 19/19/13
f 18/18/13 17/17/13 20/20/13
f 21/21/14 22/22/14 23/23/15
f 22/22/14 21/21/14 24/24/16
